<?xml version="1.0" encoding="UTF-8" standalone="no"?>
<svg
   width="167"
   height="151"
   viewBox="0 0 167 151"
   fill="none"
   version="1.1"
   id="svg8"
   sodipodi:docname="Ministère_des_Armées.svg"
   inkscape:export-filename="Ministère_des_Armées.png"
   inkscape:export-xdpi="96"
   inkscape:export-ydpi="96"
   inkscape:version="1.3.2 (091e20e, 2023-11-25, custom)"
   xmlns:inkscape="http://www.inkscape.org/namespaces/inkscape"
   xmlns:sodipodi="http://sodipodi.sourceforge.net/DTD/sodipodi-0.dtd"
   xmlns="http://www.w3.org/2000/svg"
   xmlns:svg="http://www.w3.org/2000/svg">
  <defs
     id="defs8" />
  <sodipodi:namedview
     id="namedview8"
     pagecolor="#ffffff"
     bordercolor="#000000"
     borderopacity="0.25"
     inkscape:showpageshadow="2"
     inkscape:pageopacity="0.0"
     inkscape:pagecheckerboard="0"
     inkscape:deskcolor="#d1d1d1"
     inkscape:export-bgcolor="#ffffff00"
     inkscape:zoom="4.0319135"
     inkscape:cx="115.45387"
     inkscape:cy="91.147789"
     inkscape:window-width="1920"
     inkscape:window-height="1017"
     inkscape:window-x="1912"
     inkscape:window-y="-8"
     inkscape:window-maximized="1"
     inkscape:current-layer="svg8" />
  <rect
     width="71.9338"
     height="26.281273"
     fill="#ffffff"
     id="rect2"
     x="1.9998666"
     y="2.0002527"
     style="stroke-width:1.31097"
     inkscape:export-filename=".\rect2.png"
     inkscape:export-xdpi="96"
     inkscape:export-ydpi="96" />
  <path
     fill-rule="evenodd"
     clip-rule="evenodd"
     d="m 31.738329,25.181509 c 0.280804,-0.282129 0.564223,-0.585021 0.845942,-0.888964 0.503406,-0.601578 1.054157,-1.166494 1.642445,-1.690543 0.170287,-0.155191 0.34999,-0.299344 0.538326,-0.431801 0.02472,-0.02484 0.03714,-0.06215 0.04944,-0.09934 0.01177,-0.03732 0.02472,-0.07451 0.04944,-0.09934 -0.123464,0.04967 -0.222341,0.124179 -0.321217,0.198555 -0.09888,0.07451 -0.197752,0.149015 -0.321348,0.198687 -0.04944,0 -0.09888,-0.04954 -0.04944,-0.09921 l 0.528125,-0.39803 c -0.01046,6.57e-4 -0.02237,6.57e-4 -0.03387,6.57e-4 -0.04931,0 -0.04931,-0.04954 -0.04931,-0.09934 -0.637333,-0.09842 -1.128576,0.340211 -1.570641,0.734824 l -0.01177,0.01051 c -0.06592,0.03325 -0.131835,0 -0.183105,-0.02576 -0.0255,-0.01314 -0.04748,-0.02392 -0.06395,-0.02392 -0.388574,0.130224 -0.72287,0.369515 -1.059651,0.610646 h -1.3e-4 c -0.305915,0.219054 -0.613923,0.439554 -0.96666,0.581341 v -0.09934 c -0.122941,0.04113 -0.244444,0.09619 -0.366208,0.15138 -0.172118,0.07806 -0.34489,0.156374 -0.523548,0.19619 -0.334557,0.07464 -0.641126,0.06518 -0.940763,0.05585 h -1.31e-4 -1.3e-4 v 0 h -1.31e-4 -1.31e-4 v 0 c -0.09875,-0.0026 -0.196706,-0.0066 -0.294667,-0.0066 -0.604375,0.07385 -1.204433,0.18121 -1.797168,0.321552 l -0.0259,0.0066 -0.01177,0.0026 -0.014,0.0039 c -0.320693,0.08686 -0.629878,0.211959 -0.921014,0.372669 -0.01177,0.0066 -0.02276,0.01314 -0.03374,0.01971 -0.02459,0.03101 -0.04878,0.06071 -0.07154,0.08594 -0.09325,0.119711 -0.208346,0.220499 -0.339004,0.297109 -0.214886,0.109856 -0.402175,0.277531 -0.588157,0.443891 -0.07677,0.06873 -0.153284,0.13732 -0.231496,0.201446 -0.02328,0.01629 -0.05088,0.0251 -0.07926,0.02523 -0.08148,0.07858 -0.16257,0.157425 -0.24379,0.236269 v 0 0 1.31e-4 h -1.31e-4 v 0 0 1.31e-4 c -0.182843,0.17753 -0.365685,0.355323 -0.55219,0.529042 -0.04708,0.02194 -0.09979,0.02825 -0.150799,0.01813 0.0136,-0.02037 0.02328,-0.036 0.0327,-0.05177 0.04159,-0.07017 0.08384,-0.139947 0.126603,-0.209461 0.04787,-0.07766 0.09665,-0.154534 0.146614,-0.230619 0.06736,-0.102759 0.136675,-0.204336 0.21044,-0.302366 0.01713,-0.01866 0.01635,-0.04757 -0.0013,-0.06518 -0.01857,-0.01774 -0.04342,-0.02707 -0.06906,-0.02602 0.252815,-0.237582 0.531133,-0.446256 0.829724,-0.622077 -0.03296,0.0026 -0.08096,-0.02352 -0.05598,-0.05848 0.01844,-0.02576 0.03453,-0.05243 0.05048,-0.07924 0.01177,-0.01879 0.02263,-0.03758 0.03479,-0.05611 0.0052,-0.01472 0.01046,-0.02957 0.01582,-0.04428 -0.0078,-0.0092 -0.01543,-0.01642 -0.02315,-0.02444 l -0.01373,-0.01472 c -0.08135,0.04849 -0.15904,0.103023 -0.232281,0.163076 -0.03584,0.03246 -0.06932,0.07516 -0.103585,0.118922 v 0 c -0.07873,0.100658 -0.161655,0.206571 -0.286689,0.205126 -0.02537,-3.95e-4 -0.05062,-0.0039 -0.07494,-0.01051 -0.01831,-0.0026 -0.03597,-0.0079 -0.05192,-0.01774 l 0.0065,-0.01183 0.0078,-0.01393 0.0065,-0.01314 0.02354,-0.04271 0.01308,-0.023 0.01046,-0.01984 0.01897,-0.03443 c 0.01177,-0.02102 0.02315,-0.04166 0.03505,-0.06294 l 0.01046,-0.01748 0.0052,-0.0092 0.01046,-0.01827 c 0.01478,-0.02562 0.02956,-0.05099 0.04447,-0.07648 l 3.92e-4,-7.89e-4 0.01896,-0.03233 0.03047,-0.05269 0.02171,-0.03745 2.62e-4,-2.63e-4 1.31e-4,-3.94e-4 1.31e-4,-2.63e-4 h 1.3e-4 l 0.01491,-0.02589 0.0153,-0.02602 c 0.01046,-0.01629 0.01177,-0.0364 0.0039,-0.05414 -0.0078,-0.01761 -0.02289,-0.03062 -0.04159,-0.03469 0.09194,-0.1205 0.207039,-0.221289 0.338482,-0.296322 h -0.01491 c 0.130265,-0.06597 0.260531,-0.141524 0.390796,-0.217214 l 1.31e-4,-1.32e-4 3.93e-4,-1.31e-4 c 0.05872,-0.03417 0.117579,-0.06833 0.176303,-0.101577 0.01831,-0.01564 0.0361,-0.03141 0.05402,-0.04704 l 0.02773,-0.02392 c -0.278188,0.09448 -0.542773,0.225625 -0.786825,0.389883 -0.0293,0.01183 -0.05715,0.02681 -0.08279,0.04534 -0.04643,0.01051 -0.09443,-0.0079 -0.123333,-0.04534 -0.0078,-0.01051 -0.01177,-0.02339 -0.01177,-0.03653 0.0289,-0.05782 0.09129,-0.09895 0.157862,-0.142707 0.04774,-0.03141 0.09757,-0.06426 0.138897,-0.105651 0.04918,0 0.09861,0 0.09861,0.04967 0.981569,-0.770436 2.191234,-0.947966 3.405085,-1.126022 0.742356,-0.108804 1.486413,-0.218003 2.180509,-0.463207 l 0.444813,-0.297898 c 0.127126,-0.05112 0.241174,-0.141656 0.362284,-0.237714 0.114441,-0.0908 0.235028,-0.186597 0.379026,-0.259002 0.399429,-0.275428 0.695404,-0.677663 0.840318,-1.142053 -0.0052,-0.03771 -0.0225,-0.07267 -0.04931,-0.09947 -0.621246,0.672932 -1.357848,1.228124 -2.174885,1.638901 -0.748504,0.393956 -1.548408,0.452169 -2.344127,0.509988 -0.307746,0.02234 -0.614968,0.04468 -0.918267,0.08647 0.04957,-0.09921 0.148445,-0.09921 0.24719,-0.09921 0,-0.118003 0.06186,-0.173719 0.136675,-0.240999 0.01975,-0.01774 0.04041,-0.03627 0.06108,-0.05703 h 0.148445 c 0.02459,0 0.03688,-0.02484 0.04918,-0.04967 0.01308,-0.02484 0.02472,-0.04967 0.04944,-0.04967 0.09888,0 0.247321,-0.04967 0.197883,-0.04967 -0.07533,-0.10092 -0.188859,-0.06097 -0.314808,-0.01656 -0.122026,0.04284 -0.255561,0.08988 -0.377195,0.01656 0.04774,-0.04796 0.06082,-0.107622 0.07285,-0.162024 0.01308,-0.05808 0.0242,-0.11025 0.07533,-0.135874 h 0.197752 c 0.01046,-0.0753 0.04512,-0.145204 0.09888,-0.198687 0.440366,-0.265572 0.863337,-0.496059 1.279245,-0.722603 0.284335,-0.154929 0.5654,-0.308017 0.846595,-0.469384 -0.05755,0 -0.107508,0.02234 -0.1559,0.04402 -0.07651,0.0343 -0.148706,0.06662 -0.239474,0.0053 0.04944,0 0.04944,-0.03732 0.04944,-0.07451 0,-0.03732 0,-0.07464 0.04944,-0.07464 0.311147,-0.08515 0.589858,-0.219186 0.873277,-0.355585 0.211877,-0.10184 0.426371,-0.204863 0.658913,-0.289883 -0.06775,0 -0.129873,0.01761 -0.190036,0.03456 -0.115225,0.03259 -0.223779,0.06334 -0.353652,-0.03456 0.03283,-0.01656 0.06029,-0.03863 0.08776,-0.06071 0.05493,-0.04415 0.109862,-0.08831 0.208739,-0.08831 V 19.38846 c 0,-0.04967 0.04957,-0.04967 0.09901,-0.04967 -0.03754,-0.0053 -0.07233,-0.0226 -0.09901,-0.04967 0.02563,-0.05125 0.07756,-0.06281 0.135366,-0.07569 0.05415,-0.01183 0.113525,-0.02523 0.161262,-0.07319 -0.04944,0 -0.148314,0 -0.148314,-0.04967 0.148314,-0.198686 0.395374,-0.248489 0.642696,-0.298029 -0.02485,-0.04967 -0.07429,-0.04967 -0.117579,-0.04967 -0.04316,0 -0.0803,0 -0.0803,-0.04967 0,-0.04967 0.04944,-0.04967 0.09888,-0.04967 h -0.09888 c -0.07664,-0.0385 -0.06409,-0.106833 -0.05467,-0.158739 v 0 c 0.0026,-0.01511 0.0052,-0.02878 0.0052,-0.03982 0.197753,-0.231801 0.26367,-0.507754 0.329457,-0.783576 0.03296,-0.137977 0.06592,-0.275954 0.115356,-0.408411 -0.04944,0 -0.09888,0 -0.09888,-0.04967 -0.479733,0.530356 -1.239224,0.732985 -1.961308,0.925758 l -0.06513,0.01735 h -0.24706 c -0.273871,0.108016 -0.581094,0.08988 -0.840448,-0.04967 -0.119672,-0.06018 -0.203115,-0.138502 -0.294144,-0.223916 -0.05938,-0.05585 -0.122026,-0.114587 -0.199976,-0.173457 -0.386612,-0.247964 -0.801473,-0.448227 -1.235823,-0.596322 -1.227321,-0.403155 -2.515329,-0.587912 -3.805952,-0.546125 0.355222,-0.194744 0.73451,-0.273062 1.118244,-0.3523 0.203638,-0.04205 0.408584,-0.08436 0.61183,-0.144416 0.12281,-0.03627 0.244705,-0.07372 0.365816,-0.110907 0.707828,-0.217214 1.395254,-0.428122 2.154875,-0.385809 -0.100446,-0.03364 -0.223649,-0.02168 -0.338874,-0.01051 -0.05467,0.0053 -0.107639,0.01051 -0.155377,0.01051 -0.556637,-0.03995 -1.113404,0.08081 -1.696199,0.207228 -0.141513,0.03075 -0.284596,0.06176 -0.429641,0.09093 -0.246929,0.04954 -0.481433,0.124048 -0.716068,0.198424 -0.234897,0.07451 -0.469793,0.149015 -0.717246,0.198686 -0.113916,0.03824 -0.205992,0.105651 -0.295844,0.171486 -0.143867,0.105519 -0.28198,0.206833 -0.495166,0.176084 v -0.148883 c 0.494382,-0.596454 1.087509,-1.191856 1.878388,-1.241528 0.751904,-0.125887 1.468627,-0.0389 2.209676,0.05099 h 3.92e-4 c 0.135628,0.01643 0.27204,0.03298 0.409761,0.04836 0.633671,0.06767 1.261196,0.183837 1.877341,0.347569 0.13589,0 0.212009,0.119974 0.285774,0.236269 0.06056,0.0954 0.119541,0.188437 0.208739,0.210776 0.118494,0.03969 0.23725,0.0477 0.355876,0.05559 0.178003,0.01183 0.356007,0.02378 0.533618,0.14297 0,-0.03312 -0.0052,-0.06623 -0.01046,-0.09921 -0.01046,-0.06623 -0.02197,-0.132458 0.01046,-0.198686 0.111562,-0.112221 0.238951,-0.08187 0.364246,-0.05204 0.09678,0.023 0.192391,0.0456 0.278449,0.0026 0.268248,-0.168463 0.01321,-0.428385 -0.240258,-0.68673 -0.120064,-0.122339 -0.239867,-0.244416 -0.30343,-0.356242 0.0052,-0.03758 0.02249,-0.07254 0.04931,-0.09934 0.118495,0.104206 0.228096,0.212879 0.336781,0.320632 0.254123,0.251774 0.503406,0.498687 0.849473,0.672669 0.247191,0.09921 0.840317,0.248358 0.741441,-0.04954 -0.173164,-0.38305 -0.467962,-0.717216 -0.764852,-1.053879 -0.126735,-0.143627 -0.25373,-0.287649 -0.371963,-0.436138 V 14.07465 c -0.07233,0 -0.09168,-0.02668 -0.116272,-0.06032 -0.0092,-0.01183 -0.0187,-0.02576 -0.03191,-0.03903 v -0.198555 c -0.12438,-0.06242 -0.15093,-0.164127 -0.178134,-0.268069 -0.01609,-0.06137 -0.03231,-0.123522 -0.06906,-0.178844 -0.08266,-0.138371 -0.08854,-0.307491 -0.09469,-0.481736 -0.0052,-0.138634 -0.01046,-0.280421 -0.05362,-0.412353 -0.0892,-0.275296 -0.155246,-0.557689 -0.197884,-0.844154 -0.05807,-0.331276 -0.123726,-0.647177 -0.187943,-0.95677 h -1.31e-4 v -1.32e-4 0 0 c -0.09953,-0.479633 -0.196052,-0.9440229 -0.256607,-1.4268099 -0.07612,-0.7262829 0.287343,-1.33522 0.66166,-1.9624226 0.111824,-0.187254 0.224695,-0.3762164 0.326972,-0.5703036 0.345936,-0.5964534 0.74131,-1.1919871 1.383875,-1.5892285 0.148053,-0.5947452 0.541727,-1.0898844 0.935401,-1.5850235 l 0.0026,-0.00394 C 33.477165,3.0122046 34.133071,2.7169345 34.608226,2.5035306 35.036821,2.3123343 35.475225,2.1441342 35.921607,1.99985 H 1.99985 v 26.280484 h 24.023535 c 0.655644,-0.474246 1.310634,-0.775035 2.091835,-1.133774 0.340181,-0.156242 0.704166,-0.323391 1.102549,-0.520632 0.07651,-0.03784 0.165055,-0.08081 0.262362,-0.128253 l 9.16e-4,-3.94e-4 0.0013,-6.57e-4 5.23e-4,-2.63e-4 c 0.693965,-0.337451 1.834573,-0.892118 2.255451,-1.315246 z m -7.848108,-3.607236 c 0.03466,-0.174245 0.215147,-0.22615 0.388312,-0.276085 0.07376,-0.02116 0.146091,-0.04192 0.205207,-0.07162 l 0.02367,-0.01183 0.02668,-0.01432 1.31e-4,-1.32e-4 c 0.0943,-0.05072 0.2124,-0.114323 0.295582,-0.07267 0.05598,0.08436 0.127781,0.104993 0.197491,0.125099 0.05336,0.01537 0.105677,0.03049 0.148576,0.07359 -0.178527,0.179107 -0.392628,0.196715 -0.610129,0.214587 -0.144391,0.01183 -0.290351,0.02392 -0.428333,0.08344 -0.02407,0 -0.05389,0.0026 -0.08462,0.0066 -0.09574,0.0092 -0.199976,0.01958 -0.16257,-0.05559 z m -5.783216,-3.675042 c -0.443897,0.893958 -0.973722,1.742186 -1.581628,2.532726 0.0052,0.03771 0.0225,0.07267 0.04944,0.09947 1.186385,-1.341002 2.273762,-2.483186 3.805429,-3.426815 0.03793,-0.01892 0.02498,-0.0013 0.0052,0.02431 -0.03087,0.04179 -0.07821,0.105651 0.04368,0.07503 0.513738,-0.119054 0.743141,-0.555586 0.966005,-0.979634 0.05585,-0.106439 0.111302,-0.211959 0.17081,-0.311565 0.229796,-0.375165 0.559776,-0.616033 0.892764,-0.859266 0.240128,-0.175427 0.481957,-0.352038 0.688995,-0.580816 0.0065,0.05453 -0.01177,0.10933 -0.04944,0.148883 0.0395,0.03824 0.09404,0.0565 0.148315,0.04967 0.08619,-0.06478 0.181534,-0.09198 0.274002,-0.118397 0.120326,-0.0343 0.235812,-0.06728 0.319648,-0.179501 -0.409892,-0.164915 -0.86386,-0.182524 -1.285261,-0.0498 -1.03807,0.496716 -1.927564,1.29133 -2.768013,2.185288 -0.504452,0.536663 -1.037939,1.04284 -1.680504,1.39041 z m 2.421946,-0.446913 c -0.03884,0.0887 -0.10934,0.159528 -0.197622,0.198687 -0.04944,0 -0.09888,0 -0.09888,-0.04967 0.04434,-0.208542 0.194482,-0.378319 0.395505,-0.447044 0.04944,-1.32e-4 0.04944,0.04967 0.04944,0.09934 -0.02537,0.05112 -0.05219,0.07871 -0.07834,0.105519 -0.02459,0.02536 -0.04865,0.05007 -0.0701,0.09317 z m 2.387286,7.46375 c 0.03989,-0.03679 -0.0039,-0.06426 -0.06526,-0.07687 0.05075,-0.03876 0.09221,-0.08817 0.121633,-0.144941 0.04041,-0.0975 -0.220902,-0.07411 -0.261577,-0.04573 -0.03989,0.03193 -0.0756,0.06899 -0.106201,0.109987 -0.06461,0.06991 -0.133273,0.135874 -0.205469,0.197766 -0.05428,0.04993 -0.106985,0.101315 -0.159693,0.152563 -0.06762,0.06597 -0.135235,0.131801 -0.205731,0.194219 -0.08318,0.07346 0.188598,0.111958 0.247191,0.05966 0.06317,-0.05624 0.123988,-0.114849 0.184412,-0.173719 0.02564,-0.0011 0.05114,-0.0039 0.07612,-0.01051 0.142037,-0.05966 0.269817,-0.149147 0.374579,-0.26255 z m -0.841494,-0.623523 -0.0582,0.04126 c -0.16571,0.117477 -0.331681,0.235086 -0.506153,0.336925 -0.156685,0.09133 -0.318732,0.166361 -0.481302,0.241788 -0.05689,0.02628 -0.113917,0.05269 -0.17068,0.0799 -0.0013,-0.0039 -0.0039,-0.0079 -0.0065,-0.01183 -0.01883,-0.02654 -0.05415,-0.03509 -0.08279,-0.01997 -0.181797,0.104074 -0.348945,0.232064 -0.496997,0.380553 -0.02302,0.02194 -0.04604,0.04428 -0.06906,0.06689 -0.03126,0.03088 -0.05467,0.05427 -0.07808,0.07792 l -0.0078,0.0079 c -7.85e-4,7.88e-4 -0.0012,0.0013 -0.0013,0.0026 l -0.0013,0.0026 c -0.03518,0.03509 -0.06893,0.07057 -0.107639,0.116163 -0.01779,0.02668 -0.04015,0.0502 -0.06592,0.06925 -0.03073,0.0205 -0.115748,0.02011 -0.1079,-0.03719 v -0.0092 l -0.0039,0.0013 c -0.02799,0.01472 -0.05598,0.02957 -0.08423,0.04323 -0.02563,0.01183 -0.04852,0.02562 -0.0718,0.03942 l -0.0052,0.0026 c -0.01046,-0.0039 -0.0225,-0.0066 -0.03414,-0.0053 -0.01308,1.31e-4 -0.02524,0.0039 -0.03557,0.01183 -0.06042,0.04757 -0.120195,0.09829 -0.178526,0.15138 -0.103847,0.09396 -0.199846,0.196453 -0.28682,0.306309 l -0.01412,0.0184 -0.01478,0.01919 c -0.0052,0.0066 -0.01046,0.01393 -0.0157,0.02063 l -0.0052,0.0066 -0.0078,0.01051 -0.01426,0.02103 -0.01177,0.01787 c -0.01308,0.01367 -0.02734,0.0205 -0.04251,0.0226 l -0.0078,-0.01183 c -0.0039,-0.0053 -0.0078,-0.01183 -0.01177,-0.01761 l -0.0078,-0.01406 -0.0052,-0.01051 c -0.01504,-0.02563 -0.02904,-0.05217 -0.04225,-0.0795 l -0.0013,-0.0026 -0.0052,-0.01183 -0.0065,-0.01314 c 0.05349,-0.05782 0.105154,-0.117608 0.155115,-0.178844 l 0.01046,-0.01183 c 0.01739,-0.02129 0.0344,-0.04245 0.0514,-0.06373 l 0.08279,-0.106308 c 0.0065,-0.0079 0.01177,-0.01577 0.01792,-0.02339 l 0.01177,-0.0159 c 0.05428,-0.07122 0.1062,-0.140342 0.154592,-0.209724 l 0.0039,-0.0053 0.0092,-0.01314 c 0.0039,-0.0066 0.0078,-0.01183 0.01308,-0.0184 0.02367,-0.03508 0.04643,-0.07056 0.06775,-0.106702 0.01923,-0.03246 0.03727,-0.06544 0.05402,-0.09908 l 0.0039,-0.0079 0.0052,-0.01051 c 0.0013,-0.0026 0.0026,-0.0066 0.0039,-0.0092 0.0013,-0.0026 0.0026,-0.0066 0.0039,-0.0092 0.01739,-0.03745 0.03309,-0.07595 0.04695,-0.115769 l 0.0039,-0.01314 0.0026,-0.0079 c 0.0026,-0.0079 0.0052,-0.01616 0.0078,-0.02444 0.0052,-0.01787 0.01046,-0.03627 0.01556,-0.0548 9.16e-4,-0.0039 0.0013,-0.0079 0.0026,-0.01183 l 0.0039,-0.01735 v -1.32e-4 c 0.0039,-0.01813 0.0092,-0.03627 0.01308,-0.05532 0.0026,-0.01183 0,-0.02339 -0.0065,-0.03338 0.05572,-0.09606 0.121372,-0.18594 0.195922,-0.2682 -0.0039,0.0026 -0.0078,0.0039 -0.01046,0.0066 v 0 c -0.0039,0.0026 -0.0078,0.0039 -0.01177,0.0066 -0.03937,0.02549 -0.07141,0.05651 -0.103454,0.08765 -0.02537,0.02484 -0.05088,0.04954 -0.08004,0.07148 -0.05389,0.04034 -0.153023,-0.02654 -0.08933,-0.07451 0.0395,-0.03167 0.07703,-0.06583 0.112348,-0.102366 0.08344,-0.09803 0.16754,-0.18226 0.257523,-0.260053 l 0.02119,-0.01537 c 0.04813,-0.03509 0.09077,-0.06623 0.130658,-0.101183 0.0052,-0.0039 0.0092,-0.0092 0.01452,-0.0134 l 0.0065,-0.0066 c 0.03374,-0.04428 0.07063,-0.08607 0.110516,-0.124836 l 0.0026,-0.0026 c 9.15e-4,-0.0011 0.0013,-0.0013 0.0026,-0.0026 0.289174,-0.280422 0.699196,-0.381867 1.116805,-0.485021 0.265501,-0.0657 0.534141,-0.132195 0.776623,-0.245862 0.13759,-0.05532 0.290613,-0.03364 0.441935,-0.01183 0.120195,0.01721 0.239344,0.03417 0.348683,0.01183 0.155115,-0.01524 0.310885,0.01971 0.444943,0.09948 -0.342535,0.187386 -0.665322,0.393562 -0.980915,0.595271 -0.09325,0.05966 -0.18572,0.118791 -0.278057,0.176873 z m 0.826715,-3.562558 h 0.395505 c -0.02786,0.05611 -0.103061,0.06465 -0.15433,0.07056 -0.0395,0.0039 -0.06474,0.0079 -0.04329,0.02904 0.148446,0.148621 0.444944,0.09908 0.642565,-2.63e-4 0.150146,-0.08489 0.323179,-0.119711 0.494251,-0.09934 0.04944,0 0.04944,-0.09934 0.04944,-0.148883 0.127519,0.04074 0.261578,0.05769 0.395244,0.04954 1.186384,-0.248358 2.323331,-0.496585 3.410708,-1.042972 -1.097317,-0.847966 -2.446926,-1.225365 -3.771816,-1.595799 v 0 0 c -0.226788,-0.06334 -0.45279,-0.126545 -0.676832,-0.191985 0.04944,0 0.09888,0.01656 0.148315,0.03311 0.09888,0.03311 0.197752,0.06623 0.296629,-0.03311 -0.134451,-0.108016 -0.283681,-0.127858 -0.431603,-0.147569 -0.123726,-0.01643 -0.246668,-0.03272 -0.359277,-0.100658 0.01046,0 0.02472,0.0026 0.03976,0.0053 0.05166,0.0092 0.119672,0.02208 0.157993,-0.05493 -0.263539,-0.132326 -0.527079,-0.176479 -0.790618,-0.220631 v 0 c -0.131835,-0.02208 -0.263801,-0.04428 -0.395767,-0.0774 0.236859,-0.04284 0.405838,-0.254928 0.395505,-0.496584 0,-0.04954 -0.09888,-0.04954 -0.148314,-0.04954 -0.593127,0.297899 -0.988632,0.844155 -1.235692,1.489754 0.220771,0.126807 0.461553,0.111959 0.696842,0.09764 0.133536,-0.0079 0.265371,-0.01629 0.390666,0.0013 -0.110124,0.11025 -0.274133,0.138897 -0.432126,0.166492 -0.05545,0.0092 -0.110124,0.01919 -0.161524,0.0322 -0.151715,0.03798 -0.296629,0.148883 -0.24719,0.248226 0.02694,0.03758 0.06709,0.06321 0.112347,0.07188 -0.116794,0.03088 -0.223518,0.09172 -0.309969,0.176478 0.141513,0.106439 0.282896,0.0862 0.424148,0.06583 0.0565,-0.0079 0.11287,-0.01616 0.169371,-0.01616 0,0.06623 0.04395,0.0883 0.08802,0.110381 v 0 c 0.02197,0.01051 0.04395,0.02208 0.06042,0.03863 -0.216063,0.07911 -0.393281,0.239291 -0.494381,0.446781 -0.05938,0.149147 -0.172118,0.244416 -0.284727,0.339817 v 0 c -0.0752,0.0636 -0.150276,0.12707 -0.209524,0.206571 v 0.148883 c -0.168063,0.151906 -0.341751,0.286466 -0.513215,0.419581 v 0 c -0.333511,0.258608 -0.659175,0.511039 -0.920229,0.87175 0.04931,0 0.04931,0.04967 0.04931,0.09921 -0.04473,0.06754 -0.109732,0.114717 -0.172118,0.159921 -0.07533,0.05453 -0.146745,0.106176 -0.173949,0.187648 0,0.0498 0,0.09948 0.04957,0.09948 0.310885,-0.104074 0.580964,-0.276348 0.845811,-0.445336 0.240651,-0.153483 0.477117,-0.304337 0.735948,-0.398818 0.211355,-0.05322 0.394328,-0.148752 0.571808,-0.241525 0.154593,-0.08068 0.305,-0.159265 0.466131,-0.20552 0.123465,-0.02484 0.259485,-0.06202 0.395375,-0.09934 v 0 0 c 0.13602,-0.03719 0.271909,-0.07451 0.395505,-0.09934 0,0.04967 0,0.09934 0.04931,0.09934 z m 2.279778,4.37754 c 0.0039,-0.0026 0.0078,-0.0066 0.01177,-0.0092 l 0.0092,-0.0066 c 0.07154,-0.05072 0.137982,-0.115637 0.197491,-0.193167 -0.0039,-0.0013 -0.0078,-0.0026 -0.01177,-0.0039 -0.0039,-0.0013 -0.0078,-0.0026 -0.01046,-0.0053 -0.06592,0.06781 -0.130004,0.140736 -0.194745,0.219054 z m 9.642007,-3.258878 -0.102669,0.07714 c 0.05676,-0.0026 0.102669,-0.01708 0.102669,-0.07714 z"
     fill="#000091"
     id="path2"
     style="stroke-width:1.31097" />
  <path
     d="M 73.932735,2.0002442 H 45.79524 c 0.09365,0.03088 0.183235,0.072799 0.267071,0.1248361 0.228488,0.1231277 0.524593,0.281998 0.709921,0.3796329 0.379156,0.1754275 0.70469,0.449804 0.942464,0.7944829 0.09888,0.1490148 0.24719,0.4470444 0.148314,0.6457309 -0.09888,0.2482266 -0.148314,0.6455994 -0.395374,0.7449426 -0.296629,0.1488834 -0.692134,0.1488834 -1.038071,0.099212 -0.201153,-0.0092 -0.400475,-0.04205 -0.59365,-0.099212 0.741311,0.2978982 1.433314,0.6455995 1.927696,1.3408705 0.04944,0.099343 0.247059,0.1488834 0.444943,0.1488834 0.04944,0 0.04944,0.099343 0.04944,0.1490148 -0.09901,0.099475 -0.197883,0.1490149 -0.148445,0.2978983 h 0.148445 c 0.24706,-0.099343 0.197622,-0.5963221 0.543689,-0.4469131 0.252291,0.1562422 0.339004,0.4833126 0.197621,0.7449427 -0.185327,0.1800267 -0.383734,0.3459929 -0.593519,0.4965846 -0.04944,0.1105128 -0.04944,0.2370571 0,0.3477013 0.123726,0.178844 0.207954,0.3821297 0.24706,0.596322 0.148445,0.3475699 0.197753,0.7449427 0.346067,1.0925125 0.197753,0.7449424 0.395374,1.4898854 0.345936,2.2348284 0,0.397372 -0.197752,0.744942 -0.04944,1.142315 0.09888,0.397242 0.345936,0.695271 0.54382,1.042841 0.197491,0.297898 0.395374,0.496585 0.543688,0.794614 0.296368,0.496585 0.840187,0.99317 0.59365,1.589097 -0.148314,0.34757 -0.692003,0.29803 -1.037939,0.496716 -0.296629,0.248227 -0.04944,0.645468 0.09875,0.893826 0.24719,0.447045 -0.296629,0.744943 -0.642565,0.893958 0.09888,0.148883 0.296628,0.09921 0.345936,0.198555 0.04944,0.248358 0.296629,0.397373 0.148445,0.645599 -0.197753,0.29803 -0.79088,0.447045 -0.494381,0.893958 0.197752,0.347701 0.06906,0.733773 -0.04931,1.092644 -0.148314,0.446913 -0.543689,0.645468 -0.889756,0.744942 -0.304606,0.09054 -0.626216,0.107491 -0.93867,0.04954 -0.09024,-0.05493 -0.191475,-0.08896 -0.296498,-0.09921 -0.840449,-0.09948 -1.680766,-0.347701 -2.520953,-0.347701 -0.238166,0.0364 -0.470709,0.103154 -0.692003,0.198555 -0.215278,0.158607 -0.415516,0.336531 -0.598489,0.531801 l -0.0052,0.0066 c -0.03714,0.03968 -0.07272,0.0799 -0.10777,0.120369 -0.02158,0.0251 -0.04264,0.05072 -0.06369,0.07621 -0.01426,0.01695 -0.02825,0.03403 -0.04211,0.05125 -0.143475,0.180946 -0.273479,0.372274 -0.389096,0.572406 -0.0078,0.01314 -0.01478,0.02523 -0.02184,0.03798 -0.01308,0.023 -0.0255,0.04626 -0.03819,0.06938 -0.155508,0.290014 -0.280935,0.595271 -0.374318,0.911172 -0.335996,1.13719 -0.18912,2.113014 0.04682,2.349808 0.06566,0.06597 1.631458,0.551644 2.722105,1.039162 0.402307,0.169777 0.792188,0.367938 1.166636,0.593037 h 27.630819 z"
     fill="#e1000f"
     id="path3"
     style="stroke-width:1.31097" />
  <path
     d="m 47.468682,11.587652 c 0.197883,0.04967 0.494251,0.04967 0.494251,0.149015 -0.09875,0.39711 -0.692134,0.496453 -0.988632,0.893958 h -0.147923 c -0.148183,0.09934 -0.09875,0.347569 -0.247059,0.347569 -0.149623,-0.03298 -0.305915,-0.01551 -0.444813,0.04967 0.197753,0.198555 0.444813,0.347833 0.741311,0.297898 0.08514,0.0297 0.143867,0.108411 0.148314,0.19895 0.03793,-0.0039 0.07324,-0.02142 0.09888,-0.0498 0.04957,0 0.09901,0 0.09901,0.0498 v 0.198555 c -0.148445,0.198686 -0.395636,0.09921 -0.593519,0.149014 0.372486,0.09934 0.764329,0.09934 1.136685,0 0.29676,-0.09934 0,-0.596453 0.197883,-0.844417 -0.09875,0 0,-0.149015 -0.09875,-0.149015 0.09875,-0.09921 0.197622,-0.248226 0.296498,-0.297898 0.117448,0.0026 0.228749,-0.05269 0.296629,-0.149015 0,-0.09921 -0.197622,-0.148883 -0.148315,-0.248489 0.296498,-0.198292 0.543558,-0.496453 0.444944,-0.794352 -0.04957,-0.149014 -0.444944,-0.149014 -0.692134,-0.248358 -0.247322,-0.09921 -0.54382,0 -0.840187,0.04967 -0.247322,0 -0.494512,0.149015 -0.741572,0.198686 -0.33665,0.115507 -0.653421,0.282918 -0.938671,0.496454 0.353914,-0.128516 0.717638,-0.228122 1.087508,-0.297899 0.296106,0 0.547874,-0.07332 0.839664,0 z"
     fill="#808080"
     id="path4"
     style="stroke-width:1.31097" />
  <mask
     id="mask0"
     mask-type="alpha"
     maskUnits="userSpaceOnUse"
     x="18"
     y="20"
     width="57"
     height="20">
    <rect
       x="18"
       y="20"
       width="57"
       height="20"
       fill="#C4C4C4"
       id="rect4" />
  </mask>
  <g
     mask="url(#mask0)"
     id="g4" />
  <path
     d="M 2.0783232,61.133107 H 5.7927231 V 47.939908 l 4.0806083,6.885693 h 2.6157746 l 4.080608,-6.885693 v 13.193199 h 3.7144 V 42.736216 H 15.654193 L 11.181219,50.46291 6.7082442,42.736216 h -4.629921 z m 23.7084648,0 h 3.7144 V 42.736216 h -3.7144 z m 9.224791,0 h 3.7144 V 47.834783 l 8.187374,13.298324 h 4.76071 V 42.736216 h -3.7144 V 56.03454 L 39.772288,42.736216 h -4.760709 z m 22.175752,0 h 3.7144 V 42.736216 h -3.7144 z m 7.576852,-2.549284 c 1.62178,1.944814 3.688242,3.074909 6.774856,3.074909 3.37435,0 6.04244,-2.07622 6.094755,-5.545348 0,-6.307506 -8.318163,-5.36138 -8.318163,-8.699101 0,-1.103814 0.863206,-1.944815 2.171093,-1.944815 1.38636,0 2.589617,0.919845 3.662084,2.312752 l 2.720406,-2.470439 c -1.569465,-1.86597 -3.662085,-3.10119 -6.408648,-3.10119 -3.505138,0 -5.91165,2.417877 -5.91165,5.335098 0,6.228662 8.318163,5.308817 8.318163,8.699101 0,1.314064 -0.889364,2.102502 -2.354197,2.102502 -1.490992,0 -2.955826,-0.841001 -4.054451,-2.26019 z M 79.909649,46.1265 h 5.650073 v 15.006607 h 3.7144 V 46.1265 h 5.650073 V 42.736216 H 79.909649 Z M 102.2672,41.15934 h 3.4005 l -2.95582,-3.547972 h -3.819032 z m -3.688245,19.973767 h 10.672885 v -3.10119 h -6.95849 v -4.730629 h 5.91218 v -3.101191 h -5.91218 v -4.362691 h 6.95849 v -3.10119 H 98.578955 Z m 15.381275,0 h 3.7144 v -7.4376 h 1.90952 l 4.8915,7.4376 h 4.36834 l -5.72855,-8.147195 c 1.88336,-0.867282 2.95583,-2.523002 2.95583,-4.75691 0,-3.416565 -2.48499,-5.492786 -6.51328,-5.492786 h -5.59776 z m 5.80702,-15.295701 c 1.56947,0 2.48499,0.946126 2.48499,2.339034 0,1.498032 -0.91552,2.417877 -2.48499,2.417877 h -2.09262 v -4.756911 z m 11.82199,15.295701 h 10.67237 v -3.10119 h -6.95797 v -4.730629 h 5.91166 v -3.101191 h -5.91166 v -4.362691 h 6.95797 v -3.10119 H 131.58924 Z M 2.0783232,88.728443 h 7.1933801 c 5.8070197,0 9.7306817,-4.231285 9.7306817,-9.198446 0,-4.96716 -3.923662,-9.198445 -9.7306817,-9.198445 H 2.0783232 Z M 9.3240187,73.721836 c 3.4005073,0 5.8593353,2.523002 5.8593353,5.808161 0,3.258878 -2.458828,5.808161 -5.8593353,5.808161 H 5.7927231 V 73.721836 Z M 22.976923,88.728443 h 10.67236 v -3.101191 h -6.95796 v -4.730629 h 5.911651 v -3.10119 h -5.911651 v -4.362691 h 6.95796 v -3.10119 h -10.67236 z m 13.733078,-2.549284 c 1.62178,1.944814 3.688242,3.074909 6.774856,3.074909 3.374349,0 6.042439,-2.07622 6.094755,-5.545348 0,-6.307506 -8.318163,-5.36138 -8.318163,-8.699102 0,-1.103813 0.863206,-1.944814 2.171093,-1.944814 1.38636,0 2.589617,0.919845 3.662084,2.312752 l 2.720406,-2.470439 c -1.569465,-1.865971 -3.662085,-3.10119 -6.408648,-3.10119 -3.505138,0 -5.91165,2.417877 -5.91165,5.335098 0,6.228661 8.318163,5.308817 8.318163,8.699101 0,1.314064 -0.889364,2.102502 -2.354197,2.102502 -1.490992,0 -2.955826,-0.841001 -4.054451,-2.26019 z m 22.035808,2.549284 h 3.94982 l 1.752569,-4.783192 h 7.324168 l 1.752569,4.783192 h 3.94982 L 70.542952,70.331552 h -4.86534 z m 6.853329,-7.963226 2.511144,-6.911974 2.511144,6.911974 z m 15.095505,7.963226 h 3.714399 v -7.4376 h 1.909516 l 4.891498,7.4376 H 95.5784 l -5.728546,-8.147195 c 1.883357,-0.867282 2.955825,-2.523002 2.955825,-4.75691 0,-3.416565 -2.484986,-5.492786 -6.513279,-5.492786 h -5.597757 z m 5.807019,-15.295701 c 1.569465,0 2.484986,0.946126 2.484986,2.339033 0,1.498033 -0.915521,2.417877 -2.484986,2.417877 h -2.09262 v -4.75691 z m 11.821862,15.295701 h 3.714396 V 75.535244 l 4.08061,6.885693 h 2.61538 l 4.08061,-6.885693 v 13.193199 h 3.7144 V 70.331552 H 111.899 l -4.47297,7.726694 -4.47258,-7.726694 h -4.629926 z m 30.693106,-19.973767 3.40051,-3.547972 h -3.81903 l -2.95583,3.547972 z m -6.98412,19.973767 h 10.67236 v -3.101191 h -6.95796 v -4.730629 h 5.91165 v -3.10119 h -5.91165 v -4.362691 h 6.95796 v -3.10119 h -10.67236 z m 15.38076,0 h 10.67236 v -3.101191 h -6.95796 v -4.730629 h 5.91165 v -3.10119 h -5.91165 v -4.362691 h 6.95796 v -3.10119 h -10.67236 z m 13.73281,-2.549284 c 1.62178,1.944814 3.68825,3.074909 6.77486,3.074909 3.37435,0 6.04244,-2.07622 6.09475,-5.545348 0,-6.307506 -8.31816,-5.36138 -8.31816,-8.699102 0,-1.103813 0.86321,-1.944814 2.17109,-1.944814 1.38636,0 2.58962,0.919845 3.66209,2.312752 l 2.7204,-2.470439 c -1.56946,-1.865971 -3.66208,-3.10119 -6.40864,-3.10119 -3.50514,0 -5.91165,2.417877 -5.91165,5.335098 0,6.228661 8.31816,5.308817 8.31816,8.699101 0,1.314064 -0.88936,2.102502 -2.3542,2.102502 -1.49099,0 -2.95582,-0.841001 -4.05445,-2.26019 z"
     fill="#1e1e1e"
     id="path5"
     style="stroke-width:1.31097" />
  <path
     fill-rule="evenodd"
     clip-rule="evenodd"
     d="m 69.957673,135.64051 -2.43267,2.23391 h -0.627786 l 1.438676,-2.54928 h 1.62178 z m -1.752569,8.64654 h -0.523155 c -0.653944,0.78844 -1.386361,1.41919 -2.09262,1.41919 -0.732417,0 -1.098625,-0.44678 -1.098625,-1.41919 0,-0.39422 0.05232,-0.81472 0.130789,-1.18266 l 4.263712,-1.41918 c 0.837048,-1.99738 -0.156946,-2.86466 -1.334045,-2.86466 -2.014146,0 -4.316028,3.54797 -4.316028,6.38635 0,1.34034 0.627786,2.07622 1.62178,2.07622 1.150941,-0.0263 2.354198,-1.15638 3.348192,-2.99607 z m -1.464834,-4.31013 c 0.575471,0 1.072468,0.44679 0.81089,1.47175 l -2.641932,0.7096 c 0.418524,-1.2615 1.203256,-2.18135 1.831042,-2.18135 z m -8.318163,0.0526 h 1.412518 l -2.249566,6.20238 c -0.209262,0.52562 0.07847,1.05125 0.627786,1.05125 1.595623,0 3.505138,-1.36663 4.237555,-3.31144 h -0.392366 c -0.575471,0.81472 -1.831042,1.70828 -2.772721,1.86597 l 2.066462,-5.80816 h 2.118777 l 0.261577,-0.89357 h -2.066461 l 0.784732,-2.23391 h -0.81089 l -1.464834,2.23391 -1.752569,0.23653 z m -1.961831,-1.18266 c 0.287735,0 0.680102,0.31537 0.496997,0.89356 l -2.537301,6.1761 c 0.653944,-0.10512 1.334045,-0.73587 1.726411,-1.31406 h 0.418524 c -0.601628,1.55059 -1.961831,2.68069 -3.138929,2.68069 -0.287736,0 -0.706259,-0.31538 -0.496997,-0.89357 l 2.354197,-6.1761 c -0.653944,0.10513 -1.334045,0.73588 -1.726412,1.31407 H 53.1644 c 0.601628,-1.57688 2.066462,-2.68069 3.295876,-2.68069 z m 0.732417,-1.57688 c 0.523155,0 0.967837,-0.4205 0.967837,-0.9724 0,-0.52563 -0.444682,-0.97241 -0.967837,-0.97241 -0.549313,0 -0.967837,0.44678 -0.967837,0.97241 0,0.52562 0.444682,0.9724 0.967837,0.9724 z m -11.430935,5.12485 c 0.575471,-1.2615 0.366209,-1.83969 0,-1.83969 -0.313893,0 -0.680101,0.34166 -1.04631,0.97241 h -0.392366 c 0.601628,-1.34035 1.386361,-2.68069 2.249566,-2.68069 0.732417,0 0.993995,0.73587 0.993995,1.55059 v 1.15638 c 0.119017,-0.13929 0.234765,-0.27595 0.347898,-0.40867 h 1.3e-4 c 1.105034,-1.30356 1.948753,-2.2983 2.92169,-2.2983 0.758574,0 1.150941,0.47306 1.150941,1.18266 0,0.4205 -0.130789,0.94612 -0.418524,1.49803 l -2.171093,4.38897 c 0.653944,-0.10512 1.334045,-0.73587 1.726411,-1.31406 h 0.392366 c -0.601628,1.57687 -2.066462,2.68069 -3.295876,2.68069 -0.549312,0 -0.863205,-0.57819 -0.627786,-1.05125 l 2.511144,-4.86204 c 0.287735,-0.55191 0.340051,-0.91984 -0.104631,-0.91984 -0.601628,0 -2.014146,0.99868 -2.772721,1.91853 l -1.647938,4.36269 c -0.183104,0.44678 -0.366208,0.55191 -0.784732,0.55191 -0.680102,0 -1.020152,-0.44678 -0.706259,-1.15638 z m -1.700253,-1.682 c 0.287735,-0.99869 0.130789,-1.89225 -0.627786,-1.89225 -0.945995,0 -1.242231,0.62812 -2.15906,2.57031 l -0.06435,0.13666 v -1.15638 c 0,-0.81472 -0.261578,-1.55059 -0.993995,-1.55059 -0.863205,0 -1.647938,1.34034 -2.249566,2.68069 h 0.392366 c 0.418524,-0.60447 0.81089,-0.97241 1.124783,-0.97241 0.366209,0 0.575471,0.57819 0,1.83969 l -1.674095,3.73194 c -0.313893,0.70959 0.02616,1.15638 0.706259,1.15638 0.418524,0 0.601628,-0.10513 0.784732,-0.55191 l 1.647938,-4.36269 c 0.470839,-0.57819 0.889363,-1.07753 1.412518,-1.62944 z m -8.265848,0.73587 c 0.261578,-1.02496 -0.23542,-1.47175 -0.81089,-1.47175 -0.627786,0 -1.412518,0.91985 -1.831042,2.18135 z m 0.653944,2.83838 h -0.523155 c -0.653944,0.78844 -1.386361,1.41919 -2.09262,1.41919 -0.732417,0 -1.098625,-0.44678 -1.098625,-1.41919 0,-0.39422 0.05231,-0.81472 0.130789,-1.18266 l 4.263712,-1.41918 c 0.837048,-1.99738 -0.156946,-2.86466 -1.334045,-2.86466 -2.014146,0 -4.316028,3.54797 -4.316028,6.38635 0,1.34034 0.627786,2.07622 1.62178,2.07622 1.150941,-0.0263 2.354198,-1.15638 3.348192,-2.99607 z m -8.370479,-4.25756 h -1.412518 v -0.65704 l 1.752569,-0.23653 1.464834,-2.23391 h 0.81089 l -0.784733,2.23391 h 2.066462 l -0.261577,0.89357 h -2.118777 l -2.066462,5.80816 c 0.941678,-0.15769 2.19725,-1.05125 2.772721,-1.86597 h 0.392366 c -0.732417,1.94481 -2.641932,3.31144 -4.237555,3.31144 -0.549313,0 -0.837048,-0.52563 -0.627786,-1.05125 z m -8.893633,4.80947 c 0,-1.91853 2.118777,-4.4941 3.295876,-4.4941 0.261577,0 0.523155,0.0263 0.732417,0.10513 l -1.229414,3.31144 c -0.70626,0.86728 -1.804885,1.91853 -2.32804,1.91853 -0.287735,0 -0.470839,-0.26281 -0.470839,-0.841 z m 5.833177,-6.41263 0.653944,0.0526 -2.275724,5.25626 c -0.549313,1.2615 -0.313893,1.83968 0,1.83968 0.313893,0 0.706259,-0.36793 1.124783,-0.9724 h 0.392366 c -0.601628,1.34034 -1.38636,2.68069 -2.249566,2.68069 -0.732417,0 -1.177099,-0.78844 -1.04631,-2.20763 l 0.05232,-0.49934 -0.142429,0.19973 c -0.936971,1.3167 -1.784874,2.50724 -2.65645,2.50724 -0.758575,0 -1.150941,-0.47307 -1.150941,-1.18266 0,-3.04863 3.322034,-6.93826 6.434805,-6.93826 h 0.130789 z m -5.990124,2.28647 c 0.287736,-0.99869 0.130789,-1.89225 -0.627786,-1.89225 -0.945994,0 -1.242231,0.62812 -2.15906,2.57031 l -0.06435,0.13666 v -1.15638 c 0,-0.81472 -0.261577,-1.55059 -0.993994,-1.55059 -0.863206,0 -1.647938,1.34034 -2.249566,2.68069 h 0.392366 c 0.418524,-0.60447 0.81089,-0.97241 1.098625,-0.97241 0.366209,0 0.575471,0.57819 0,1.83969 l -1.674096,3.75822 c -0.313893,0.7096 0.02616,1.15638 0.70626,1.15638 0.418523,0 0.601628,-0.10513 0.784732,-0.55191 l 1.647938,-4.36269 c 0.470839,-0.57819 0.889363,-1.07753 1.412518,-1.62944 h 1.726411 z m -10.7769908,5.78188 -0.1569465,0.47306 H 1.99985 l 0.1569465,-0.49934 c 1.8833576,-0.34166 2.1972506,-0.49935 2.981983,-2.62813 l 1.7002534,-4.57294 c 0.7585746,-2.12878 0.6016282,-2.28647 -1.0463098,-2.62813 l 0.1569465,-0.47306 h 7.9257964 l -0.470839,2.54928 h -0.57547 c 0,-1.52431 -0.156947,-1.91853 -1.595623,-1.91853 h -0.366208 c -1.4125185,0 -1.5956227,0.21025 -1.9879889,1.31406 l -1.1247831,3.07491 h 1.647938 c 1.098625,0 1.517149,-0.68331 2.014146,-1.57687 h 0.575471 l -1.360203,3.73194 h -0.57547 c 0.130788,-1.1301 0.130788,-1.57688 -0.8893637,-1.57688 h -1.647938 l -0.7585746,2.1025 c -0.8200453,2.18792 -0.5856719,2.2326 1.366873,2.60448 0.040675,0.008 0.082005,0.0158 0.1241185,0.0236 z"
     fill="#000000"
     id="path6"
     style="stroke-width:1.31097" />
  <path
     fill-rule="evenodd"
     clip-rule="evenodd"
     d="m 13.430785,115.53534 -2.432671,1.76085 v 0.0263 h -0.627785 l 1.438676,-2.1025 h 1.62178 z m 17.002534,12.32592 3.897504,-10.40739 -0.130788,-0.15768 -2.694248,0.31537 v 0.31538 l 0.523155,0.39422 c 0.446643,0.34954 0.32841,0.67411 -0.04225,1.69382 l -0.06239,0.17215 -2.981983,7.9895 c -0.23542,0.47307 0.07847,1.05125 0.627786,1.05125 1.229414,0 2.537301,-1.13009 3.138929,-2.68069 h -0.392366 c -0.418524,0.57819 -1.255572,1.20894 -1.883358,1.31407 z m 17.865741,-8.01579 2.43267,-2.23391 v -0.31537 h -1.62178 l -1.438676,2.54928 z m 0.156946,6.38635 h 0.523155 c -0.967837,1.86597 -2.171093,2.99606 -3.322034,2.99606 -0.993994,0 -1.62178,-0.73587 -1.62178,-2.07622 0,-2.83837 2.301882,-6.38635 4.316028,-6.38635 1.150941,0 2.171093,0.86729 1.334045,2.86466 l -4.28987,1.41919 c -0.07847,0.36794 -0.130789,0.78844 -0.130789,1.18266 0,0.97241 0.366209,1.41919 1.098625,1.41919 0.70626,0 1.438676,-0.63075 2.09262,-1.41919 z m -0.130789,-2.83838 c 0.261578,-0.99869 -0.235419,-1.44547 -0.81089,-1.44547 -0.601628,0 -1.38636,0.91985 -1.831042,2.15507 z m -7.690377,-1.39291 h -1.412518 v -0.65703 l 1.752569,-0.23653 1.464834,-2.23391 h 0.81089 l -0.784733,2.23391 h 2.066462 l -0.261577,0.89356 h -2.118778 l -2.066462,5.80816 c 0.941679,-0.15768 2.197251,-1.05125 2.772721,-1.86597 h 0.392367 c -0.732417,1.94482 -2.641933,3.31144 -4.237555,3.31144 -0.549313,0 -0.837048,-0.52562 -0.627786,-1.05125 z m -2.877352,-0.31537 c 0.156947,-0.57819 -0.209262,-0.89357 -0.523155,-0.89357 -1.229414,0 -2.694248,1.1301 -3.295876,2.68069 h 0.392366 c 0.392367,-0.57818 1.072468,-1.20893 1.726412,-1.31406 l -2.354197,6.1761 c -0.209262,0.57819 0.209262,0.89356 0.496997,0.89356 1.177098,0 2.537301,-1.13009 3.138929,-2.68069 h -0.392366 c -0.392366,0.57819 -1.072468,1.20894 -1.726411,1.31407 z m 1.203256,-3.41657 c 0,0.52563 -0.444681,0.97241 -0.967836,0.97241 -0.523155,0 -0.967837,-0.44678 -0.967837,-0.97241 0,-0.52562 0.418524,-0.9724 0.967837,-0.9724 0.523155,0 0.967836,0.44678 0.967836,0.9724 z m -13.209661,4.04732 c -1.177099,0 -3.295876,2.57556 -3.295876,4.4941 0,0.57818 0.183104,0.841 0.496997,0.841 0.496997,0 1.595623,-1.05125 2.301882,-1.91854 l 1.229414,-3.31144 c -0.23542,-0.0788 -0.47084,-0.10512 -0.732417,-0.10512 z m 3.191245,-1.86597 -0.653944,-0.0526 -0.732417,0.73587 h -0.130788 c -3.112772,0 -6.434806,3.88963 -6.434806,6.93826 0,0.70959 0.392366,1.18265 1.150941,1.18265 0.871576,0 1.719479,-1.19054 2.65645,-2.50723 l 0.142429,-0.19974 -0.05232,0.49935 c -0.130788,1.41919 0.313893,2.20762 1.04631,2.20762 0.863206,0 1.647938,-1.34034 2.249566,-2.68069 h -0.392366 c -0.418524,0.60447 -0.81089,0.97241 -1.124783,0.97241 -0.313893,0 -0.549313,-0.57819 0,-1.83969 z m -13.183504,8.51513 c -1.124783,0.44678 -1.909515,0.97241 -1.909515,1.78713 0,0.76215 0.706259,1.07753 2.171093,1.07753 1.961831,0 3.034298,-0.57819 3.034298,-1.34035 0,-0.34165 -0.444682,-0.49934 -1.62178,-0.89356 -0.758575,-0.23653 -1.307887,-0.44678 -1.674096,-0.63075 z m 1.307887,-3.2326 c -0.523154,0 -0.706259,-0.44678 -0.706259,-0.91984 0,-1.52431 0.732417,-3.41657 1.909516,-3.41657 0.523155,0 0.706259,0.44679 0.706259,0.91985 -0.02616,1.55059 -0.758575,3.41656 -1.909516,3.41656 z m 0.993995,2.47044 c 1.438676,0.44679 2.328039,0.78844 2.328039,1.78713 0,1.28778 -2.354197,2.8121 -5.205391,2.78581 -1.647938,0 -3.060456,-0.44678 -3.060456,-1.52431 0,-1.02497 0.941678,-1.86597 3.24356,-2.54928 -0.313893,-0.21025 -0.444682,-0.47307 -0.444682,-0.841 0,-0.63075 0.575471,-1.1301 1.569465,-1.60316 -0.967837,-0.13141 -1.595622,-0.86728 -1.595622,-1.94481 0,-1.65572 1.360202,-3.54798 3.505137,-3.54798 0.444682,0 0.837048,0.10513 1.150941,0.31538 h 2.354197 l -0.261577,0.89356 h -1.386361 c 0.07847,0.23653 0.130789,0.49935 0.130789,0.78844 0,1.60316 -1.281729,3.44285 -3.322034,3.54797 -0.523154,0.2891 -0.784732,0.68331 -0.784732,0.99869 0,0.37057 0.427941,0.49672 1.373543,0.77398 h 3.93e-4 c 0.125688,0.0368 0.260531,0.0762 0.404791,0.11958 z m -8.2920056,-4.49409 c 1.0201516,0 1.0463096,0.44678 0.8893636,1.57687 h 0.57547 l 1.360203,-3.73194 h -0.57547 c -0.496998,0.89356 -0.915522,1.57688 -2.014147,1.57688 H 7.754554 l 1.0986253,-3.07491 c 0.3923662,-1.10381 0.5754704,-1.31406 1.9879887,-1.31406 h 0.993994 c 1.438676,0 1.595623,0.39421 1.595623,1.91853 h 0.57547 l 0.47084,-2.54929 H 5.9496696 l -0.1569465,0.47307 c 1.647938,0.34165 1.8048844,0.49934 1.0463098,2.62813 l -1.7002534,4.59922 c -0.7847324,2.12878 -1.0986254,2.28647 -3.0081408,2.62812 L 1.99985,128.93879 h 9.469104 l 1.700253,-2.70697 h -0.653943 c -1.098626,1.07753 -2.197251,2.07622 -4.3421861,2.07622 -2.3592978,0 -2.3171838,-0.11564 -1.6093553,-2.06965 0.045514,-0.12615 0.093906,-0.25887 0.1445216,-0.40079 l 0.7847324,-2.1025 h 2.2757238 z"
     fill="#000000"
     id="path7"
     style="stroke-width:1.31097" />
  <path
     fill-rule="evenodd"
     clip-rule="evenodd"
     d="m 17.589866,101.18577 c 0.523155,0 0.967837,-0.44679 0.967837,-0.97241 0,-0.525627 -0.444682,-0.972409 -0.967837,-0.972409 -0.549312,0 -0.967836,0.446782 -0.967836,0.972409 0,0.55191 0.418524,0.97241 0.967836,0.97241 z m 2.275724,9.98688 c 2.040304,0.0263 5.466969,-3.75822 5.466969,-6.67544 0,-1.26151 -0.313893,-1.73457 -1.203256,-1.73457 -1.098626,0 -2.118778,1.18266 -3.13893,2.60185 l 2.197251,-5.913288 -0.130789,-0.183969 -2.694248,0.315375 v 0.315375 l 0.523155,0.394217 c 0.455537,0.35598 0.323441,0.71196 -0.06461,1.75796 l -0.04002,0.10801 -2.380355,6.25495 c -0.209262,0.52562 -0.444681,1.15637 -0.444681,1.31406 0,0.73587 0.993994,1.44547 1.909514,1.44547 z m 28.145734,-9.35613 2.432671,-2.233912 v -0.315375 h -1.621781 l -1.438676,2.549287 z m 0.156947,6.38635 h 0.523155 c -0.993995,1.86597 -2.197251,2.99606 -3.348192,2.96978 -0.993994,0 -1.62178,-0.7096 -1.62178,-2.04994 0,-2.83838 2.301882,-6.38635 4.316028,-6.38635 1.150941,0 2.171093,0.86728 1.334045,2.86466 l -4.263712,1.41919 c -0.07847,0.36794 -0.130789,0.78844 -0.130789,1.18266 0,0.9724 0.366208,1.41918 1.098625,1.41918 0.706259,0 1.438676,-0.63075 2.09262,-1.41918 z m -0.130789,-2.83838 c 0.261578,-0.99869 -0.23542,-1.44547 -0.81089,-1.44547 -0.627786,0 -1.412518,0.91984 -1.831042,2.15506 z m -7.716535,-1.39291 h -1.412518 v -0.65703 l 1.752569,-0.23653 1.464834,-2.23391 h 0.81089 l -0.784733,2.23391 h 2.066462 l -0.261577,0.89356 h -2.118778 l -2.066461,5.80816 c 0.941678,-0.15769 2.19725,-1.05125 2.772721,-1.86597 h 0.392366 c -0.732417,1.94482 -2.641933,3.31144 -4.237555,3.31144 -0.549313,0 -0.837048,-0.52562 -0.627786,-1.05125 z m -2.144935,0.68331 c 0.287735,-0.99868 0.130789,-1.89225 -0.627786,-1.89225 -0.945995,0 -1.242231,0.62773 -2.15906,2.57057 l -0.06435,0.1364 v -1.15637 c 0,-0.81472 -0.261578,-1.5506 -0.993995,-1.5506 -0.863205,0 -1.647938,1.34035 -2.249566,2.68069 h 0.392367 c 0.418523,-0.60447 0.81089,-0.97241 1.098625,-0.97241 0.366208,0 0.57547,0.57819 0,1.83969 l -1.674096,3.73194 c -0.313893,0.7096 0.02616,1.15638 0.706259,1.15638 0.418524,0 0.601628,-0.10512 0.784733,-0.55191 l 1.647938,-4.36269 c 0.470839,-0.57819 0.889363,-1.07753 1.412518,-1.62944 z m -8.292005,0.7096 c 0.261577,-0.99869 -0.23542,-1.44547 -0.81089,-1.44547 -0.627786,0 -1.386361,0.91984 -1.831043,2.15506 z m 0.653943,2.83838 h -0.523155 c -0.653943,0.78843 -1.38636,1.41918 -2.092619,1.41918 -0.732417,0 -1.098626,-0.44678 -1.098626,-1.41918 0,-0.39422 0.05232,-0.81472 0.130789,-1.18266 l 4.263713,-1.41919 c 0.837048,-1.99738 -0.156947,-2.86466 -1.334045,-2.86466 -2.014147,0 -4.316028,3.54797 -4.316028,6.38635 0,1.34034 0.627786,2.04994 1.62178,2.04994 1.150941,0.0263 2.354197,-1.10381 3.348191,-2.96978 z m -10.986253,0.99868 c 0,0.34166 0.601628,0.73588 1.020152,0.73588 1.700254,0 3.295876,-3.07491 3.269719,-4.78319 0,-0.57819 -0.287736,-0.81472 -0.680102,-0.81472 -0.627786,0 -1.778727,0.94612 -2.511143,1.83969 l -0.680102,1.83969 c -0.23542,0.60447 -0.418524,1.07753 -0.418524,1.18265 z m -2.746563,-6.43891 c 0.313893,0 0.680101,0.31538 0.523155,0.89357 l -2.511144,6.17609 c 0.653944,-0.10512 1.334045,-0.73587 1.726412,-1.31406 h 0.392366 c -0.601628,1.5506 -1.961831,2.68069 -3.13893,2.68069 -0.313893,0 -0.732417,-0.31537 -0.523155,-0.89356 l 2.354197,-6.1761 c -0.653943,0.10512 -1.334045,0.73587 -1.726411,1.31406 h -0.392366 c 0.601628,-1.55059 2.066462,-2.68069 3.295876,-2.68069 z M 5.9496696,100.02939 h 5.6239154 l -0.156947,0.49934 c -1.909515,0.34166 -2.223408,0.49935 -3.0081404,2.62813 l -1.6740957,4.6255 c -0.8108901,2.20763 -0.6016281,2.47044 0.8370479,2.47044 1.7774188,0 2.9430082,-1.29829 3.9606752,-2.43101 0.0756,-0.0841 0.150407,-0.1682 0.224564,-0.24968 h 0.653944 l -1.8572,3.31145 H 1.99985 l 0.1569465,-0.47307 c 1.8833576,-0.34165 2.1972506,-0.49934 2.981983,-2.62813 l 1.7002534,-4.65178 c 0.7585746,-2.12878 0.6016282,-2.28647 -1.0463098,-2.62813 z"
     fill="#000000"
     id="path8"
     style="stroke-width:1.31097" />
  <mask
     id="mask1"
     mask-type="alpha"
     maskUnits="userSpaceOnUse"
     x="18"
     y="94"
     width="54"
     height="37">
    <rect
       x="18"
       y="94"
       width="54"
       height="37"
       fill="#C4C4C4"
       id="rect8" />
  </mask>
  <g
     mask="url(#mask1)"
     id="g8" />
</svg>
